<svg xmlns="http://www.w3.org/2000/svg" xmlns:xlink="http://www.w3.org/1999/xlink" id="Слой_1" x="0" y="0" enable-background="new 0 560 20 20" version="1.1" viewBox="0 560 20 20" xml:space="preserve"><path fill="#FFF" d="M20,576v1.6c0,0.3-0.1,0.4-0.3,0.6c-0.1,0.1-0.4,0.3-0.6,0.3H0.9c-0.3,0-0.4-0.1-0.6-0.3	c-0.1-0.1-0.3-0.4-0.3-0.6V576c0-0.3,0.1-0.4,0.3-0.6c0.1-0.1,0.4-0.3,0.6-0.3h18.3c0.3,0,0.4,0.1,0.6,0.3	C19.9,575.6,20,575.9,20,576z M20,569.5v1.6c0,0.3-0.1,0.4-0.3,0.6c-0.1,0.1-0.4,0.3-0.6,0.3H0.9c-0.3,0-0.4-0.1-0.6-0.3	c-0.1-0.1-0.3-0.4-0.3-0.6v-1.6c0-0.3,0.1-0.4,0.3-0.6c0.1-0.1,0.4-0.3,0.6-0.3h18.3c0.3,0,0.4,0.1,0.6,0.3	C19.9,569.1,20,569.3,20,569.5z M20,562.9v1.6c0,0.3-0.1,0.4-0.3,0.6c-0.1,0.1-0.4,0.3-0.6,0.3H0.9c-0.3,0-0.4-0.1-0.6-0.3	C0.1,565,0,564.8,0,564.5v-1.6c0-0.3,0.1-0.4,0.3-0.6c0.1-0.1,0.4-0.3,0.6-0.3h18.3c0.3,0,0.4,0.1,0.6,0.3	C19.9,562.4,20,562.6,20,562.9z"/></svg>